# xmcd
#
# Track frame offsets:
#	150
#	10029
#	23472
#	38705
#	55235
#	68913
#	87119
#	99656
#	118319
#	129966
#	145694
#	160001
#	172901
#	188487
#	205200
#
# Disc length: 2928 seconds
# Revision: 0
# Processed by: cddbd v1.5.2PL0 Copyright (c) Steve Scherf et al.
# Submitted via: dBpowerAMP V12.0
#
DISCID=b50b6e0f
DTITLE=Truckstop Honeymoon - The Madness of Happiness
DYEAR=2014
DGENRE=Country
TTITLE0=List of Chores
TTITLE1=Watching the Weather
TTITLE2=Sometimes I Cry
TTITLE3=Home is not a Hotel
TTITLE4=Little Red Bird
TTITLE5=Sunday in Ponca City
TTITLE6=People in Love
TTITLE7=Couch Surfing with a Family of Six
TTITLE8=The City That You Loved
TTITLE9=Running Like a Child
TTITLE10=Running Shoes
TTITLE11=Don't Put words in My Mouth
TTITLE12=Lego Airplane
TTITLE13=House of Love
TTITLE14=The Madness of Happiness
EXTD=
EXTT0=
EXTT1=
EXTT2=
EXTT3=
EXTT4=
EXTT5=
EXTT6=
EXTT7=
EXTT8=
EXTT9=
EXTT10=
EXTT11=
EXTT12=
EXTT13=
EXTT14=
PLAYORDER=
